<svg version="1.0" xmlns="http://www.w3.org/2000/svg"
 width="220.000000pt" height="220.000000pt" viewBox="0 0 220.000000 220.000000"
 preserveAspectRatio="xMidYMid meet">
<metadata>
Created by potrace 1.13, written by Peter Selinger 2001-2015
</metadata>
<g transform="translate(0.000000,220.000000) scale(0.100000,-0.100000)"
fill="#f75750" stroke="none">
<path d="M545 1650 l-550 -550 553 -553 552 -552 552 552 553 553 -550 550
c-302 302 -552 550 -555 550 -3 0 -253 -248 -555 -550z m1035 -75 l475 -475
-478 -478 -477 -477 -477 477 -478 478 475 475 c261 261 477 475 480 475 3 0
219 -214 480 -475z"/>
<path d="M645 1550 l-450 -450 453 -453 452 -452 452 452 453 453 -450 450
c-247 247 -452 450 -455 450 -3 0 -208 -203 -455 -450z m893 -13 l432 -432
-435 -435 -435 -435 -435 435 -435 435 432 432 c238 238 435 433 438 433 3 0
200 -195 438 -433z"/>
<path d="M960 1775 l-135 -135 245 -245 245 -245 137 137 138 138 -62 62 -62
63 -76 -75 -76 -75 -29 30 -29 30 74 75 75 75 -63 62 -62 63 -75 -75 -75 -75
-27 28 -28 27 75 75 74 75 -59 60 c-33 33 -62 60 -65 60 -3 0 -66 -61 -140
-135z m154 18 c3 -4 -26 -40 -66 -80 l-73 -73 80 -80 80 -80 71 71 c45 45 76
69 84 64 8 -5 -12 -32 -61 -81 l-74 -74 80 -80 80 -80 72 72 c48 48 76 69 83
62 6 -6 -18 -37 -73 -92 l-82 -82 -190 190 -190 190 80 80 c81 81 86 85 99 73z"/>
<path d="M722 1527 l-62 -63 75 -74 75 -75 -30 -30 -30 -30 -75 75 -75 75 -62
-63 -63 -62 75 -75 74 -74 -24 -26 -24 -26 -71 71 c-39 38 -75 70 -81 70 -5 0
-35 -26 -67 -58 l-57 -57 138 -138 137 -137 243 243 242 242 -138 138 -137
137 -63 -63z m150 -124 c43 -43 78 -82 78 -88 0 -6 -83 -93 -185 -195 l-185
-185 -84 84 c-47 47 -82 89 -79 94 3 5 39 -24 79 -64 l74 -74 80 80 80 80 -71
71 c-45 45 -69 76 -64 84 5 8 32 -12 81 -61 l74 -74 80 80 80 80 -71 71 c-61
62 -79 94 -51 94 4 0 42 -35 84 -77z"/>
<path d="M1382 1127 l-242 -242 135 -135 135 -135 62 63 63 62 -73 73 -72 73
30 29 30 29 73 -72 72 -72 63 62 62 63 -72 72 -73 73 28 27 27 28 73 -73 73
-72 59 60 60 60 -135 135 -135 135 -243 -243z m332 54 c52 -53 74 -81 66 -86
-8 -5 -39 19 -84 64 l-71 71 -80 -80 -80 -80 74 -74 c49 -49 69 -76 61 -81 -8
-5 -39 19 -84 64 l-71 71 -80 -80 -80 -80 74 -74 c49 -50 69 -76 61 -81 -8 -5
-42 22 -94 74 l-81 81 185 185 c102 102 189 185 195 185 6 0 46 -35 89 -79z"/>
<path d="M1015 1190 l-80 -80 85 -85 85 -85 85 85 85 85 -80 80 c-44 44 -84
80 -90 80 -6 0 -46 -36 -90 -80z"/>
<path d="M750 925 l-135 -135 63 -62 62 -63 73 73 72 72 28 -27 27 -28 -72
-72 -72 -73 64 -65 64 -65 73 72 72 72 26 -24 26 -24 -73 -73 -73 -73 63 -63
62 -62 137 138 138 137 -240 240 c-132 132 -242 240 -245 240 -3 0 -66 -61
-140 -135z m327 -157 c101 -101 183 -187 183 -193 0 -6 -35 -46 -79 -89 -53
-52 -81 -74 -86 -66 -5 8 19 39 64 84 l71 71 -80 80 -80 80 -74 -74 c-49 -49
-76 -69 -81 -61 -5 8 19 39 64 84 l71 71 -80 80 -80 80 -73 -73 c-57 -57 -75
-70 -85 -60 -10 10 4 29 65 90 43 43 82 78 88 78 5 0 92 -82 192 -182z"/>
</g>
</svg>
